<mxfile host="app.diagrams.net" agent="Mozilla/5.0 (Windows NT 10.0; Win64; x64) AppleWebKit/537.36 (KHTML, like Gecko) Chrome/139.0.0.0 Safari/537.36" version="28.1.1">
  <diagram name="第 1 页" id="amebOHAFhEy2fP7Yo9b4">
    <mxGraphModel>
      <root>
        <mxCell id="0" />
        <mxCell id="1" parent="0" />
        <mxCell id="2" value="AI Agent" style="whiteSpace=wrap;strokeWidth=2;" vertex="1" parent="1">
          <mxGeometry x="786" y="8" width="119" height="54" as="geometry" />
        </mxCell>
        <mxCell id="3" value="Data Input" style="whiteSpace=wrap;strokeWidth=2;" vertex="1" parent="1">
          <mxGeometry x="209" y="147" width="135" height="54" as="geometry" />
        </mxCell>
        <mxCell id="4" value="Output" style="whiteSpace=wrap;strokeWidth=2;" vertex="1" parent="1">
          <mxGeometry x="901" y="147" width="110" height="54" as="geometry" />
        </mxCell>
        <mxCell id="5" value="Machine Learning Models" style="whiteSpace=wrap;strokeWidth=2;" vertex="1" parent="1">
          <mxGeometry x="1592" y="147" width="238" height="54" as="geometry" />
        </mxCell>
        <mxCell id="6" value="Neural Networks" style="whiteSpace=wrap;strokeWidth=2;" vertex="1" parent="1">
          <mxGeometry x="2501" y="147" width="178" height="54" as="geometry" />
        </mxCell>
        <mxCell id="7" value="Natural Language Processing" style="whiteSpace=wrap;strokeWidth=2;" vertex="1" parent="1">
          <mxGeometry x="3185" y="135" width="260" height="78" as="geometry" />
        </mxCell>
        <mxCell id="8" value="Real-time Data" style="whiteSpace=wrap;strokeWidth=2;" vertex="1" parent="1">
          <mxGeometry x="8" y="275" width="167" height="54" as="geometry" />
        </mxCell>
        <mxCell id="9" value="Historical Data" style="whiteSpace=wrap;strokeWidth=2;" vertex="1" parent="1">
          <mxGeometry x="267" y="275" width="166" height="54" as="geometry" />
        </mxCell>
        <mxCell id="10" value="User Feedback" style="whiteSpace=wrap;strokeWidth=2;" vertex="1" parent="1">
          <mxGeometry x="483" y="275" width="165" height="54" as="geometry" />
        </mxCell>
        <mxCell id="11" value="Reports" style="whiteSpace=wrap;strokeWidth=2;" vertex="1" parent="1">
          <mxGeometry x="698" y="275" width="114" height="54" as="geometry" />
        </mxCell>
        <mxCell id="12" value="Predictions" style="whiteSpace=wrap;strokeWidth=2;" vertex="1" parent="1">
          <mxGeometry x="887" y="275" width="139" height="54" as="geometry" />
        </mxCell>
        <mxCell id="13" value="Recommendations" style="whiteSpace=wrap;strokeWidth=2;" vertex="1" parent="1">
          <mxGeometry x="1108" y="275" width="190" height="54" as="geometry" />
        </mxCell>
        <mxCell id="14" value="Supervised Learning" style="whiteSpace=wrap;strokeWidth=2;" vertex="1" parent="1">
          <mxGeometry x="1348" y="275" width="203" height="54" as="geometry" />
        </mxCell>
        <mxCell id="15" value="Unsupervised Learning" style="whiteSpace=wrap;strokeWidth=2;" vertex="1" parent="1">
          <mxGeometry x="1601" y="275" width="221" height="54" as="geometry" />
        </mxCell>
        <mxCell id="16" value="Reinforcement Learning" style="whiteSpace=wrap;strokeWidth=2;" vertex="1" parent="1">
          <mxGeometry x="1872" y="275" width="232" height="54" as="geometry" />
        </mxCell>
        <mxCell id="17" value="Convolutional Neural Networks" style="whiteSpace=wrap;strokeWidth=2;" vertex="1" parent="1">
          <mxGeometry x="2153" y="263" width="260" height="78" as="geometry" />
        </mxCell>
        <mxCell id="18" value="Recurrent Neural Networks" style="whiteSpace=wrap;strokeWidth=2;" vertex="1" parent="1">
          <mxGeometry x="2463" y="275" width="254" height="54" as="geometry" />
        </mxCell>
        <mxCell id="19" value="Transformer Models" style="whiteSpace=wrap;strokeWidth=2;" vertex="1" parent="1">
          <mxGeometry x="2767" y="275" width="200" height="54" as="geometry" />
        </mxCell>
        <mxCell id="20" value="Text Analysis" style="whiteSpace=wrap;strokeWidth=2;" vertex="1" parent="1">
          <mxGeometry x="3017" y="275" width="151" height="54" as="geometry" />
        </mxCell>
        <mxCell id="21" value="Sentiment Analysis" style="whiteSpace=wrap;strokeWidth=2;" vertex="1" parent="1">
          <mxGeometry x="3218" y="275" width="194" height="54" as="geometry" />
        </mxCell>
        <mxCell id="22" value="Speech Recognition" style="whiteSpace=wrap;strokeWidth=2;" vertex="1" parent="1">
          <mxGeometry x="3462" y="275" width="199" height="54" as="geometry" />
        </mxCell>
        <mxCell id="23" value="End Users" style="whiteSpace=wrap;strokeWidth=2;" vertex="1" parent="1">
          <mxGeometry x="690" y="414" width="129" height="54" as="geometry" />
        </mxCell>
        <mxCell id="24" value="Decision Makers" style="whiteSpace=wrap;strokeWidth=2;" vertex="1" parent="1">
          <mxGeometry x="870" y="414" width="173" height="54" as="geometry" />
        </mxCell>
        <mxCell id="25" value="System Administrators" style="whiteSpace=wrap;strokeWidth=2;" vertex="1" parent="1">
          <mxGeometry x="1093" y="414" width="219" height="54" as="geometry" />
        </mxCell>
        <mxCell id="26" value="Processes" style="curved=1;startArrow=none;endArrow=block;exitX=0;exitY=0.62;entryX=0.5;entryY=0;" edge="1" parent="1" source="2" target="3">
          <mxGeometry relative="1" as="geometry">
            <Array as="points">
              <mxPoint x="276" y="99" />
            </Array>
          </mxGeometry>
        </mxCell>
        <mxCell id="27" value="Generates" style="curved=1;startArrow=none;endArrow=block;exitX=0.9;exitY=1;entryX=0.5;entryY=0;" edge="1" parent="1" source="2" target="4">
          <mxGeometry relative="1" as="geometry">
            <Array as="points">
              <mxPoint x="956" y="99" />
            </Array>
          </mxGeometry>
        </mxCell>
        <mxCell id="28" value="Uses" style="curved=1;startArrow=none;endArrow=block;exitX=1;exitY=0.58;entryX=0.5;entryY=0;" edge="1" parent="1" source="2" target="5">
          <mxGeometry relative="1" as="geometry">
            <Array as="points">
              <mxPoint x="1711" y="99" />
            </Array>
          </mxGeometry>
        </mxCell>
        <mxCell id="29" value="Implements" style="curved=1;startArrow=none;endArrow=block;exitX=1;exitY=0.54;entryX=0.5;entryY=0;" edge="1" parent="1" source="2" target="6">
          <mxGeometry relative="1" as="geometry">
            <Array as="points">
              <mxPoint x="2590" y="99" />
            </Array>
          </mxGeometry>
        </mxCell>
        <mxCell id="30" value="Incorporates" style="curved=1;startArrow=none;endArrow=block;exitX=1;exitY=0.53;entryX=0.5;entryY=0;" edge="1" parent="1" source="2" target="7">
          <mxGeometry relative="1" as="geometry">
            <Array as="points">
              <mxPoint x="3315" y="99" />
            </Array>
          </mxGeometry>
        </mxCell>
        <mxCell id="31" value="" style="curved=1;startArrow=none;endArrow=block;exitX=0;exitY=0.91;entryX=0.48;entryY=0;" edge="1" parent="1" source="3" target="8">
          <mxGeometry relative="1" as="geometry">
            <Array as="points">
              <mxPoint x="82" y="238" />
            </Array>
          </mxGeometry>
        </mxCell>
        <mxCell id="32" value="" style="curved=1;startArrow=none;endArrow=block;exitX=0.5;exitY=1;entryX=0.31;entryY=0;" edge="1" parent="1" source="3" target="9">
          <mxGeometry relative="1" as="geometry">
            <Array as="points">
              <mxPoint x="276" y="238" />
            </Array>
          </mxGeometry>
        </mxCell>
        <mxCell id="33" value="" style="curved=1;startArrow=none;endArrow=block;exitX=1;exitY=0.92;entryX=0.25;entryY=0;" edge="1" parent="1" source="3" target="10">
          <mxGeometry relative="1" as="geometry">
            <Array as="points">
              <mxPoint x="468" y="238" />
            </Array>
          </mxGeometry>
        </mxCell>
        <mxCell id="34" value="" style="curved=1;startArrow=none;endArrow=block;exitX=0;exitY=0.82;entryX=0.5;entryY=0;" edge="1" parent="1" source="4" target="11">
          <mxGeometry relative="1" as="geometry">
            <Array as="points">
              <mxPoint x="755" y="238" />
            </Array>
          </mxGeometry>
        </mxCell>
        <mxCell id="35" value="" style="curved=1;startArrow=none;endArrow=block;exitX=0.5;exitY=1;entryX=0.5;entryY=0;" edge="1" parent="1" source="4" target="12">
          <mxGeometry relative="1" as="geometry">
            <Array as="points" />
          </mxGeometry>
        </mxCell>
        <mxCell id="36" value="" style="curved=1;startArrow=none;endArrow=block;exitX=1;exitY=0.76;entryX=0.5;entryY=0;" edge="1" parent="1" source="4" target="13">
          <mxGeometry relative="1" as="geometry">
            <Array as="points">
              <mxPoint x="1203" y="238" />
            </Array>
          </mxGeometry>
        </mxCell>
        <mxCell id="37" value="" style="curved=1;startArrow=none;endArrow=block;exitX=0.04;exitY=1;entryX=0.5;entryY=0;" edge="1" parent="1" source="5" target="14">
          <mxGeometry relative="1" as="geometry">
            <Array as="points">
              <mxPoint x="1449" y="238" />
            </Array>
          </mxGeometry>
        </mxCell>
        <mxCell id="38" value="" style="curved=1;startArrow=none;endArrow=block;exitX=0.5;exitY=1;entryX=0.5;entryY=0;" edge="1" parent="1" source="5" target="15">
          <mxGeometry relative="1" as="geometry">
            <Array as="points" />
          </mxGeometry>
        </mxCell>
        <mxCell id="39" value="" style="curved=1;startArrow=none;endArrow=block;exitX=0.99;exitY=1;entryX=0.5;entryY=0;" edge="1" parent="1" source="5" target="16">
          <mxGeometry relative="1" as="geometry">
            <Array as="points">
              <mxPoint x="1988" y="238" />
            </Array>
          </mxGeometry>
        </mxCell>
        <mxCell id="40" value="" style="curved=1;startArrow=none;endArrow=block;exitX=0;exitY=0.84;entryX=0.5;entryY=0;" edge="1" parent="1" source="6" target="17">
          <mxGeometry relative="1" as="geometry">
            <Array as="points">
              <mxPoint x="2283" y="238" />
            </Array>
          </mxGeometry>
        </mxCell>
        <mxCell id="41" value="" style="curved=1;startArrow=none;endArrow=block;exitX=0.5;exitY=1;entryX=0.5;entryY=0;" edge="1" parent="1" source="6" target="18">
          <mxGeometry relative="1" as="geometry">
            <Array as="points" />
          </mxGeometry>
        </mxCell>
        <mxCell id="42" value="" style="curved=1;startArrow=none;endArrow=block;exitX=1;exitY=0.88;entryX=0.5;entryY=0;" edge="1" parent="1" source="6" target="19">
          <mxGeometry relative="1" as="geometry">
            <Array as="points">
              <mxPoint x="2867" y="238" />
            </Array>
          </mxGeometry>
        </mxCell>
        <mxCell id="43" value="" style="curved=1;startArrow=none;endArrow=block;exitX=0;exitY=0.98;entryX=0.5;entryY=0;" edge="1" parent="1" source="7" target="20">
          <mxGeometry relative="1" as="geometry">
            <Array as="points">
              <mxPoint x="3092" y="238" />
            </Array>
          </mxGeometry>
        </mxCell>
        <mxCell id="44" value="" style="curved=1;startArrow=none;endArrow=block;exitX=0.5;exitY=1;entryX=0.5;entryY=0;" edge="1" parent="1" source="7" target="21">
          <mxGeometry relative="1" as="geometry">
            <Array as="points" />
          </mxGeometry>
        </mxCell>
        <mxCell id="45" value="" style="curved=1;startArrow=none;endArrow=block;exitX=1;exitY=0.93;entryX=0.5;entryY=0;" edge="1" parent="1" source="7" target="22">
          <mxGeometry relative="1" as="geometry">
            <Array as="points">
              <mxPoint x="3561" y="238" />
            </Array>
          </mxGeometry>
        </mxCell>
        <mxCell id="46" value="Leveraged by" style="curved=1;startArrow=none;endArrow=block;exitX=0.58;exitY=0;entryX=0;entryY=0.6;" edge="1" parent="1" source="8" target="2">
          <mxGeometry relative="1" as="geometry">
            <Array as="points">
              <mxPoint x="123" y="238" />
              <mxPoint x="123" y="99" />
            </Array>
          </mxGeometry>
        </mxCell>
        <mxCell id="47" value="Informed by" style="curved=1;startArrow=none;endArrow=block;exitX=0.72;exitY=0;entryX=0;entryY=0.67;" edge="1" parent="1" source="9" target="2">
          <mxGeometry relative="1" as="geometry">
            <Array as="points">
              <mxPoint x="436" y="238" />
              <mxPoint x="436" y="99" />
            </Array>
          </mxGeometry>
        </mxCell>
        <mxCell id="48" value="Influences" style="curved=1;startArrow=none;endArrow=block;exitX=0.58;exitY=0;entryX=0;entryY=0.78;" edge="1" parent="1" source="10" target="2">
          <mxGeometry relative="1" as="geometry">
            <Array as="points">
              <mxPoint x="596" y="238" />
              <mxPoint x="596" y="99" />
            </Array>
          </mxGeometry>
        </mxCell>
        <mxCell id="49" value="Presented to" style="curved=1;startArrow=none;endArrow=block;exitX=0.5;exitY=1;entryX=0.5;entryY=0;" edge="1" parent="1" source="11" target="23">
          <mxGeometry relative="1" as="geometry">
            <Array as="points" />
          </mxGeometry>
        </mxCell>
        <mxCell id="50" value="Shared with" style="curved=1;startArrow=none;endArrow=block;exitX=0.5;exitY=1;entryX=0.5;entryY=0;" edge="1" parent="1" source="12" target="24">
          <mxGeometry relative="1" as="geometry">
            <Array as="points" />
          </mxGeometry>
        </mxCell>
        <mxCell id="51" value="Suggested to" style="curved=1;startArrow=none;endArrow=block;exitX=0.5;exitY=1;entryX=0.5;entryY=0;" edge="1" parent="1" source="13" target="25">
          <mxGeometry relative="1" as="geometry">
            <Array as="points" />
          </mxGeometry>
        </mxCell>
      </root>
    </mxGraphModel>
  </diagram>
</mxfile>
